<?xml version="1.0" encoding="UTF-8" standalone="no"?>
<!DOCTYPE svg PUBLIC "-//W3C//DTD SVG 1.1//EN"
 "http://www.w3.org/Graphics/SVG/1.1/DTD/svg11.dtd">
<!-- Generated by graphviz version 2.38.0 (20140413.2041)
 -->
<!-- Title: controllers_diagram Pages: 1 -->
<svg width="267pt" height="288pt"
 viewBox="0.00 0.00 267.09 288.00" xmlns="http://www.w3.org/2000/svg" xmlns:xlink="http://www.w3.org/1999/xlink">
<g id="graph0" class="graph" transform="scale(1 1) rotate(0) translate(108.821 239.5)">
<title>controllers_diagram</title>
<polygon fill="white" stroke="none" points="-108.821,48.5 -108.821,-239.5 158.272,-239.5 158.272,48.5 -108.821,48.5"/>
<!-- _diagram_info -->
<g id="node1" class="node"><title>_diagram_info</title>
<text text-anchor="start" x="-96.6877" y="-14.1" font-family="Times,serif" font-size="13.00">Controllers diagram</text>
<text text-anchor="start" x="-96.6877" y="-1.1" font-family="Times,serif" font-size="13.00">Date: Apr 23 2015 &#45; 22:55</text>
<text text-anchor="start" x="-96.6877" y="11.9" font-family="Times,serif" font-size="13.00">Migration version: 20150301005051</text>
<text text-anchor="start" x="-96.6877" y="24.9" font-family="Times,serif" font-size="13.00">Generated by RailRoady 1.3.0</text>
<text text-anchor="start" x="-96.6877" y="37.9" font-family="Times,serif" font-size="13.00">http://railroady.prestonlee.com</text>
</g>
<!-- ApiController -->
<g id="node2" class="node"><title>ApiController</title>
<path fill="none" stroke="black" d="M71.7275,-61C71.7275,-61 142.272,-61 142.272,-61 148.272,-61 154.272,-67 154.272,-73 154.272,-73 154.272,-223 154.272,-223 154.272,-229 148.272,-235 142.272,-235 142.272,-235 71.7275,-235 71.7275,-235 65.7275,-235 59.7275,-229 59.7275,-223 59.7275,-223 59.7275,-73 59.7275,-73 59.7275,-67 65.7275,-61 71.7275,-61"/>
<text text-anchor="middle" x="107" y="-219.8" font-family="Times,serif" font-size="14.00">ApiController</text>
<polyline fill="none" stroke="black" points="59.7275,-213 154.272,-213 "/>
<text text-anchor="start" x="67.7275" y="-197.8" font-family="Times,serif" font-size="14.00">atoz</text>
<text text-anchor="start" x="67.7275" y="-183.8" font-family="Times,serif" font-size="14.00">content</text>
<text text-anchor="start" x="67.7275" y="-169.8" font-family="Times,serif" font-size="14.00">develop</text>
<text text-anchor="start" x="67.7275" y="-155.8" font-family="Times,serif" font-size="14.00">history</text>
<text text-anchor="start" x="67.7275" y="-141.8" font-family="Times,serif" font-size="14.00">recent</text>
<text text-anchor="start" x="67.7275" y="-127.8" font-family="Times,serif" font-size="14.00">seo</text>
<text text-anchor="start" x="67.7275" y="-113.8" font-family="Times,serif" font-size="14.00">week</text>
<polyline fill="none" stroke="black" points="59.7275,-107 154.272,-107 "/>
<polyline fill="none" stroke="black" points="59.7275,-83 154.272,-83 "/>
<text text-anchor="start" x="67.7275" y="-67.8" font-family="Times,serif" font-size="14.00">_layout</text>
</g>
<!-- ApplicationController -->
<g id="node3" class="node"><title>ApplicationController</title>
<path fill="none" stroke="black" d="M-92.8208,-106C-92.8208,-106 22.8208,-106 22.8208,-106 28.8208,-106 34.8208,-112 34.8208,-118 34.8208,-118 34.8208,-186 34.8208,-186 34.8208,-192 28.8208,-198 22.8208,-198 22.8208,-198 -92.8208,-198 -92.8208,-198 -98.8208,-198 -104.821,-192 -104.821,-186 -104.821,-186 -104.821,-118 -104.821,-118 -104.821,-112 -98.8208,-106 -92.8208,-106"/>
<text text-anchor="middle" x="-35" y="-182.8" font-family="Times,serif" font-size="14.00">ApplicationController</text>
<polyline fill="none" stroke="black" points="-104.821,-176 34.8208,-176 "/>
<polyline fill="none" stroke="black" points="-104.821,-152 34.8208,-152 "/>
<polyline fill="none" stroke="black" points="-104.821,-128 34.8208,-128 "/>
<text text-anchor="start" x="-96.8208" y="-112.8" font-family="Times,serif" font-size="14.00">_layout</text>
</g>
</g>
</svg>
