<?xml version="1.0" encoding="UTF-8" standalone="no"?>
<!DOCTYPE svg PUBLIC "-//W3C//DTD SVG 1.1//EN"
 "http://www.w3.org/Graphics/SVG/1.1/DTD/svg11.dtd">
<!-- Generated by graphviz version 2.38.0 (20140413.2041)
 -->
<!-- Title: models_diagram Pages: 1 -->
<svg width="1991pt" height="207pt"
 viewBox="0.00 0.00 1991.19 207.00" xmlns="http://www.w3.org/2000/svg" xmlns:xlink="http://www.w3.org/1999/xlink">
<g id="graph0" class="graph" transform="scale(1 1) rotate(0) translate(4 203)">
<title>models_diagram</title>
<polygon fill="white" stroke="none" points="-4,4 -4,-203 1987.19,-203 1987.19,4 -4,4"/>
<!-- _diagram_info -->
<g id="node1" class="node"><title>_diagram_info</title>
<text text-anchor="start" x="8" y="-121.6" font-family="Times,serif" font-size="13.00">Models diagram</text>
<text text-anchor="start" x="8" y="-108.6" font-family="Times,serif" font-size="13.00">Date: Apr 23 2015 &#45; 22:55</text>
<text text-anchor="start" x="8" y="-95.6" font-family="Times,serif" font-size="13.00">Migration version: 20150301005051</text>
<text text-anchor="start" x="8" y="-82.6" font-family="Times,serif" font-size="13.00">Generated by RailRoady 1.3.0</text>
<text text-anchor="start" x="8" y="-69.6" font-family="Times,serif" font-size="13.00">http://railroady.prestonlee.com</text>
</g>
<!-- Category -->
<g id="node2" class="node"><title>Category</title>
<path fill="none" stroke="black" d="M237.293,-49.5C237.293,-49.5 354.083,-49.5 354.083,-49.5 360.083,-49.5 366.083,-55.5 366.083,-61.5 366.083,-61.5 366.083,-137.5 366.083,-137.5 366.083,-143.5 360.083,-149.5 354.083,-149.5 354.083,-149.5 237.293,-149.5 237.293,-149.5 231.293,-149.5 225.293,-143.5 225.293,-137.5 225.293,-137.5 225.293,-61.5 225.293,-61.5 225.293,-55.5 231.293,-49.5 237.293,-49.5"/>
<text text-anchor="middle" x="295.688" y="-134.3" font-family="Times,serif" font-size="14.00">Category</text>
<polyline fill="none" stroke="black" points="225.293,-127.5 366.083,-127.5 "/>
<text text-anchor="start" x="233.293" y="-112.3" font-family="Times,serif" font-size="14.00">id :integer</text>
<text text-anchor="start" x="233.293" y="-98.3" font-family="Times,serif" font-size="14.00">category_code :string</text>
<text text-anchor="start" x="233.293" y="-84.3" font-family="Times,serif" font-size="14.00">category_name :string</text>
<text text-anchor="start" x="233.293" y="-70.3" font-family="Times,serif" font-size="14.00">created_at :datetime</text>
<text text-anchor="start" x="233.293" y="-56.3" font-family="Times,serif" font-size="14.00">updated_at :datetime</text>
</g>
<!-- Content -->
<g id="node3" class="node"><title>Content</title>
<path fill="none" stroke="black" d="M396.182,-14.5C396.182,-14.5 505.193,-14.5 505.193,-14.5 511.193,-14.5 517.193,-20.5 517.193,-26.5 517.193,-26.5 517.193,-172.5 517.193,-172.5 517.193,-178.5 511.193,-184.5 505.193,-184.5 505.193,-184.5 396.182,-184.5 396.182,-184.5 390.182,-184.5 384.182,-178.5 384.182,-172.5 384.182,-172.5 384.182,-26.5 384.182,-26.5 384.182,-20.5 390.182,-14.5 396.182,-14.5"/>
<text text-anchor="middle" x="450.688" y="-169.3" font-family="Times,serif" font-size="14.00">Content</text>
<polyline fill="none" stroke="black" points="384.182,-162.5 517.193,-162.5 "/>
<text text-anchor="start" x="392.182" y="-147.3" font-family="Times,serif" font-size="14.00">id :integer</text>
<text text-anchor="start" x="392.182" y="-133.3" font-family="Times,serif" font-size="14.00">title :string</text>
<text text-anchor="start" x="392.182" y="-119.3" font-family="Times,serif" font-size="14.00">initial :string</text>
<text text-anchor="start" x="392.182" y="-105.3" font-family="Times,serif" font-size="14.00">description :string</text>
<text text-anchor="start" x="392.182" y="-91.3" font-family="Times,serif" font-size="14.00">category_id :integer</text>
<text text-anchor="start" x="392.182" y="-77.3" font-family="Times,serif" font-size="14.00">schedule_id :integer</text>
<text text-anchor="start" x="392.182" y="-63.3" font-family="Times,serif" font-size="14.00">created_at :datetime</text>
<text text-anchor="start" x="392.182" y="-49.3" font-family="Times,serif" font-size="14.00">updated_at :datetime</text>
<text text-anchor="start" x="392.182" y="-35.3" font-family="Times,serif" font-size="14.00">trim_title :string</text>
<text text-anchor="start" x="392.182" y="-21.3" font-family="Times,serif" font-size="14.00">error :text</text>
</g>
<!-- ContentsHolder -->
<g id="node4" class="node"><title>ContentsHolder</title>
<path fill="none" stroke="black" d="M547.679,-49.5C547.679,-49.5 705.697,-49.5 705.697,-49.5 711.697,-49.5 717.697,-55.5 717.697,-61.5 717.697,-61.5 717.697,-137.5 717.697,-137.5 717.697,-143.5 711.697,-149.5 705.697,-149.5 705.697,-149.5 547.679,-149.5 547.679,-149.5 541.679,-149.5 535.679,-143.5 535.679,-137.5 535.679,-137.5 535.679,-61.5 535.679,-61.5 535.679,-55.5 541.679,-49.5 547.679,-49.5"/>
<text text-anchor="middle" x="626.688" y="-134.3" font-family="Times,serif" font-size="14.00">ContentsHolder</text>
<polyline fill="none" stroke="black" points="535.679,-127.5 717.697,-127.5 "/>
<text text-anchor="start" x="543.679" y="-112.3" font-family="Times,serif" font-size="14.00">id :integer</text>
<text text-anchor="start" x="543.679" y="-98.3" font-family="Times,serif" font-size="14.00">contents_holder_code :string</text>
<text text-anchor="start" x="543.679" y="-84.3" font-family="Times,serif" font-size="14.00">contents_holder_name :string</text>
<text text-anchor="start" x="543.679" y="-70.3" font-family="Times,serif" font-size="14.00">created_at :datetime</text>
<text text-anchor="start" x="543.679" y="-56.3" font-family="Times,serif" font-size="14.00">updated_at :datetime</text>
</g>
<!-- DirectUrl -->
<g id="node5" class="node"><title>DirectUrl</title>
<path fill="none" stroke="black" d="M748.182,-49.5C748.182,-49.5 857.193,-49.5 857.193,-49.5 863.193,-49.5 869.193,-55.5 869.193,-61.5 869.193,-61.5 869.193,-137.5 869.193,-137.5 869.193,-143.5 863.193,-149.5 857.193,-149.5 857.193,-149.5 748.182,-149.5 748.182,-149.5 742.182,-149.5 736.182,-143.5 736.182,-137.5 736.182,-137.5 736.182,-61.5 736.182,-61.5 736.182,-55.5 742.182,-49.5 748.182,-49.5"/>
<text text-anchor="middle" x="802.688" y="-134.3" font-family="Times,serif" font-size="14.00">DirectUrl</text>
<polyline fill="none" stroke="black" points="736.182,-127.5 869.193,-127.5 "/>
<text text-anchor="start" x="744.182" y="-112.3" font-family="Times,serif" font-size="14.00">id :integer</text>
<text text-anchor="start" x="744.182" y="-98.3" font-family="Times,serif" font-size="14.00">post_id :integer</text>
<text text-anchor="start" x="744.182" y="-84.3" font-family="Times,serif" font-size="14.00">direct_url :string</text>
<text text-anchor="start" x="744.182" y="-70.3" font-family="Times,serif" font-size="14.00">created_at :datetime</text>
<text text-anchor="start" x="744.182" y="-56.3" font-family="Times,serif" font-size="14.00">updated_at :datetime</text>
</g>
<!-- Episode -->
<g id="node6" class="node"><title>Episode</title>
<path fill="none" stroke="black" d="M899.231,-35.5C899.231,-35.5 1012.14,-35.5 1012.14,-35.5 1018.14,-35.5 1024.14,-41.5 1024.14,-47.5 1024.14,-47.5 1024.14,-151.5 1024.14,-151.5 1024.14,-157.5 1018.14,-163.5 1012.14,-163.5 1012.14,-163.5 899.231,-163.5 899.231,-163.5 893.231,-163.5 887.231,-157.5 887.231,-151.5 887.231,-151.5 887.231,-47.5 887.231,-47.5 887.231,-41.5 893.231,-35.5 899.231,-35.5"/>
<text text-anchor="middle" x="955.688" y="-148.3" font-family="Times,serif" font-size="14.00">Episode</text>
<polyline fill="none" stroke="black" points="887.231,-141.5 1024.14,-141.5 "/>
<text text-anchor="start" x="895.231" y="-126.3" font-family="Times,serif" font-size="14.00">id :integer</text>
<text text-anchor="start" x="895.231" y="-112.3" font-family="Times,serif" font-size="14.00">episode_num :integer</text>
<text text-anchor="start" x="895.231" y="-98.3" font-family="Times,serif" font-size="14.00">episode_name :string</text>
<text text-anchor="start" x="895.231" y="-84.3" font-family="Times,serif" font-size="14.00">content_id :integer</text>
<text text-anchor="start" x="895.231" y="-70.3" font-family="Times,serif" font-size="14.00">created_at :datetime</text>
<text text-anchor="start" x="895.231" y="-56.3" font-family="Times,serif" font-size="14.00">updated_at :datetime</text>
<text text-anchor="start" x="895.231" y="-42.3" font-family="Times,serif" font-size="14.00">error :text</text>
</g>
<!-- Error -->
<g id="node7" class="node"><title>Error</title>
<path fill="none" stroke="black" d="M1054.18,-42.5C1054.18,-42.5 1163.19,-42.5 1163.19,-42.5 1169.19,-42.5 1175.19,-48.5 1175.19,-54.5 1175.19,-54.5 1175.19,-144.5 1175.19,-144.5 1175.19,-150.5 1169.19,-156.5 1163.19,-156.5 1163.19,-156.5 1054.18,-156.5 1054.18,-156.5 1048.18,-156.5 1042.18,-150.5 1042.18,-144.5 1042.18,-144.5 1042.18,-54.5 1042.18,-54.5 1042.18,-48.5 1048.18,-42.5 1054.18,-42.5"/>
<text text-anchor="middle" x="1108.69" y="-141.3" font-family="Times,serif" font-size="14.00">Error</text>
<polyline fill="none" stroke="black" points="1042.18,-134.5 1175.19,-134.5 "/>
<text text-anchor="start" x="1050.18" y="-119.3" font-family="Times,serif" font-size="14.00">id :integer</text>
<text text-anchor="start" x="1050.18" y="-105.3" font-family="Times,serif" font-size="14.00">name :string</text>
<text text-anchor="start" x="1050.18" y="-91.3" font-family="Times,serif" font-size="14.00">description :text</text>
<text text-anchor="start" x="1050.18" y="-77.3" font-family="Times,serif" font-size="14.00">url :text</text>
<text text-anchor="start" x="1050.18" y="-63.3" font-family="Times,serif" font-size="14.00">created_at :datetime</text>
<text text-anchor="start" x="1050.18" y="-49.3" font-family="Times,serif" font-size="14.00">updated_at :datetime</text>
</g>
<!-- Image -->
<g id="node8" class="node"><title>Image</title>
<path fill="none" stroke="black" d="M1205.18,-42.5C1205.18,-42.5 1314.19,-42.5 1314.19,-42.5 1320.19,-42.5 1326.19,-48.5 1326.19,-54.5 1326.19,-54.5 1326.19,-144.5 1326.19,-144.5 1326.19,-150.5 1320.19,-156.5 1314.19,-156.5 1314.19,-156.5 1205.18,-156.5 1205.18,-156.5 1199.18,-156.5 1193.18,-150.5 1193.18,-144.5 1193.18,-144.5 1193.18,-54.5 1193.18,-54.5 1193.18,-48.5 1199.18,-42.5 1205.18,-42.5"/>
<text text-anchor="middle" x="1259.69" y="-141.3" font-family="Times,serif" font-size="14.00">Image</text>
<polyline fill="none" stroke="black" points="1193.18,-134.5 1326.19,-134.5 "/>
<text text-anchor="start" x="1201.18" y="-119.3" font-family="Times,serif" font-size="14.00">id :integer</text>
<text text-anchor="start" x="1201.18" y="-105.3" font-family="Times,serif" font-size="14.00">url :string</text>
<text text-anchor="start" x="1201.18" y="-91.3" font-family="Times,serif" font-size="14.00">created_at :datetime</text>
<text text-anchor="start" x="1201.18" y="-77.3" font-family="Times,serif" font-size="14.00">updated_at :datetime</text>
<text text-anchor="start" x="1201.18" y="-63.3" font-family="Times,serif" font-size="14.00">table_name :string</text>
<text text-anchor="start" x="1201.18" y="-49.3" font-family="Times,serif" font-size="14.00">generic_id :integer</text>
</g>
<!-- Platform -->
<g id="node9" class="node"><title>Platform</title>
<path fill="none" stroke="black" d="M1356.29,-49.5C1356.29,-49.5 1473.09,-49.5 1473.09,-49.5 1479.09,-49.5 1485.09,-55.5 1485.09,-61.5 1485.09,-61.5 1485.09,-137.5 1485.09,-137.5 1485.09,-143.5 1479.09,-149.5 1473.09,-149.5 1473.09,-149.5 1356.29,-149.5 1356.29,-149.5 1350.29,-149.5 1344.29,-143.5 1344.29,-137.5 1344.29,-137.5 1344.29,-61.5 1344.29,-61.5 1344.29,-55.5 1350.29,-49.5 1356.29,-49.5"/>
<text text-anchor="middle" x="1414.69" y="-134.3" font-family="Times,serif" font-size="14.00">Platform</text>
<polyline fill="none" stroke="black" points="1344.29,-127.5 1485.09,-127.5 "/>
<text text-anchor="start" x="1352.29" y="-112.3" font-family="Times,serif" font-size="14.00">id :integer</text>
<text text-anchor="start" x="1352.29" y="-98.3" font-family="Times,serif" font-size="14.00">platform_code :string</text>
<text text-anchor="start" x="1352.29" y="-84.3" font-family="Times,serif" font-size="14.00">platform_name :string</text>
<text text-anchor="start" x="1352.29" y="-70.3" font-family="Times,serif" font-size="14.00">created_at :datetime</text>
<text text-anchor="start" x="1352.29" y="-56.3" font-family="Times,serif" font-size="14.00">updated_at :datetime</text>
</g>
<!-- Post -->
<g id="node10" class="node"><title>Post</title>
<path fill="none" stroke="black" d="M1514.9,-0.5C1514.9,-0.5 1660.47,-0.5 1660.47,-0.5 1666.47,-0.5 1672.47,-6.5 1672.47,-12.5 1672.47,-12.5 1672.47,-186.5 1672.47,-186.5 1672.47,-192.5 1666.47,-198.5 1660.47,-198.5 1660.47,-198.5 1514.9,-198.5 1514.9,-198.5 1508.9,-198.5 1502.9,-192.5 1502.9,-186.5 1502.9,-186.5 1502.9,-12.5 1502.9,-12.5 1502.9,-6.5 1508.9,-0.5 1514.9,-0.5"/>
<text text-anchor="middle" x="1587.69" y="-183.3" font-family="Times,serif" font-size="14.00">Post</text>
<polyline fill="none" stroke="black" points="1502.9,-176.5 1672.47,-176.5 "/>
<text text-anchor="start" x="1510.9" y="-161.3" font-family="Times,serif" font-size="14.00">id :integer</text>
<text text-anchor="start" x="1510.9" y="-147.3" font-family="Times,serif" font-size="14.00">post :string</text>
<text text-anchor="start" x="1510.9" y="-133.3" font-family="Times,serif" font-size="14.00">url :text</text>
<text text-anchor="start" x="1510.9" y="-119.3" font-family="Times,serif" font-size="14.00">short_url :string</text>
<text text-anchor="start" x="1510.9" y="-105.3" font-family="Times,serif" font-size="14.00">episode_id :integer</text>
<text text-anchor="start" x="1510.9" y="-91.3" font-family="Times,serif" font-size="14.00">contents_holder_id :integer</text>
<text text-anchor="start" x="1510.9" y="-77.3" font-family="Times,serif" font-size="14.00">platform_id :integer</text>
<text text-anchor="start" x="1510.9" y="-63.3" font-family="Times,serif" font-size="14.00">created_at :datetime</text>
<text text-anchor="start" x="1510.9" y="-49.3" font-family="Times,serif" font-size="14.00">updated_at :datetime</text>
<text text-anchor="start" x="1510.9" y="-35.3" font-family="Times,serif" font-size="14.00">direct_url :string</text>
<text text-anchor="start" x="1510.9" y="-21.3" font-family="Times,serif" font-size="14.00">available :string</text>
<text text-anchor="start" x="1510.9" y="-7.3" font-family="Times,serif" font-size="14.00">error :text</text>
</g>
<!-- Schedule -->
<g id="node11" class="node"><title>Schedule</title>
<path fill="none" stroke="black" d="M1702.9,-35.5C1702.9,-35.5 1820.48,-35.5 1820.48,-35.5 1826.48,-35.5 1832.48,-41.5 1832.48,-47.5 1832.48,-47.5 1832.48,-151.5 1832.48,-151.5 1832.48,-157.5 1826.48,-163.5 1820.48,-163.5 1820.48,-163.5 1702.9,-163.5 1702.9,-163.5 1696.9,-163.5 1690.9,-157.5 1690.9,-151.5 1690.9,-151.5 1690.9,-47.5 1690.9,-47.5 1690.9,-41.5 1696.9,-35.5 1702.9,-35.5"/>
<text text-anchor="middle" x="1761.69" y="-148.3" font-family="Times,serif" font-size="14.00">Schedule</text>
<polyline fill="none" stroke="black" points="1690.9,-141.5 1832.48,-141.5 "/>
<text text-anchor="start" x="1698.9" y="-126.3" font-family="Times,serif" font-size="14.00">id :integer</text>
<text text-anchor="start" x="1698.9" y="-112.3" font-family="Times,serif" font-size="14.00">schedule_code :string</text>
<text text-anchor="start" x="1698.9" y="-98.3" font-family="Times,serif" font-size="14.00">schedule_name :string</text>
<text text-anchor="start" x="1698.9" y="-84.3" font-family="Times,serif" font-size="14.00">week :string</text>
<text text-anchor="start" x="1698.9" y="-70.3" font-family="Times,serif" font-size="14.00">created_at :datetime</text>
<text text-anchor="start" x="1698.9" y="-56.3" font-family="Times,serif" font-size="14.00">updated_at :datetime</text>
<text text-anchor="start" x="1698.9" y="-42.3" font-family="Times,serif" font-size="14.00">date :date</text>
</g>
<!-- TermFrequency -->
<g id="node12" class="node"><title>TermFrequency</title>
<path fill="none" stroke="black" d="M1862.18,-49.5C1862.18,-49.5 1971.19,-49.5 1971.19,-49.5 1977.19,-49.5 1983.19,-55.5 1983.19,-61.5 1983.19,-61.5 1983.19,-137.5 1983.19,-137.5 1983.19,-143.5 1977.19,-149.5 1971.19,-149.5 1971.19,-149.5 1862.18,-149.5 1862.18,-149.5 1856.18,-149.5 1850.18,-143.5 1850.18,-137.5 1850.18,-137.5 1850.18,-61.5 1850.18,-61.5 1850.18,-55.5 1856.18,-49.5 1862.18,-49.5"/>
<text text-anchor="middle" x="1916.69" y="-134.3" font-family="Times,serif" font-size="14.00">TermFrequency</text>
<polyline fill="none" stroke="black" points="1850.18,-127.5 1983.19,-127.5 "/>
<text text-anchor="start" x="1858.18" y="-112.3" font-family="Times,serif" font-size="14.00">id :integer</text>
<text text-anchor="start" x="1858.18" y="-98.3" font-family="Times,serif" font-size="14.00">content_id :integer</text>
<text text-anchor="start" x="1858.18" y="-84.3" font-family="Times,serif" font-size="14.00">word :string</text>
<text text-anchor="start" x="1858.18" y="-70.3" font-family="Times,serif" font-size="14.00">created_at :datetime</text>
<text text-anchor="start" x="1858.18" y="-56.3" font-family="Times,serif" font-size="14.00">updated_at :datetime</text>
</g>
</g>
</svg>
